<?xml version="1.0" standalone="no"?>
<!DOCTYPE svg PUBLIC "-//W3C//DTD SVG 20010904//EN"
 "http://www.w3.org/TR/2001/REC-SVG-20010904/DTD/svg10.dtd">
<svg version="1.0" xmlns="http://www.w3.org/2000/svg"
 width="100.000000pt" height="100.000000pt" viewBox="0 0 100.000000 100.000000"
 preserveAspectRatio="xMidYMid meet">
<metadata>
Created by potrace 1.14, written by Peter Selinger 2001-2017
</metadata>
<g transform="translate(0.000000,100.000000) scale(0.100000,-0.100000)"
fill="#000000" stroke="none">
<path d="M638 771 c-27 -24 -33 -36 -33 -70 0 -55 33 -88 100 -100 83 -16 117
-79 80 -150 -14 -28 -58 -51 -97 -51 -56 0 -101 -75 -78 -131 17 -41 47 -59
96 -59 35 0 47 5 68 31 14 17 26 43 26 57 0 34 33 89 57 95 10 3 35 8 55 11
48 8 88 55 88 101 0 50 -35 85 -95 96 -59 11 -93 40 -101 88 -10 63 -15 72
-47 92 -45 27 -81 24 -119 -10z"/>
<path d="M34 566 c-37 -37 -42 -62 -19 -106 19 -37 43 -50 93 -50 86 0 125 99
63 161 -42 42 -92 40 -137 -5z"/>
<path d="M453 588 c-22 -11 -53 -64 -53 -92 0 -47 -55 -96 -109 -96 -61 0
-103 -72 -77 -133 17 -43 41 -57 94 -57 50 0 86 38 96 100 8 53 43 86 99 93
30 4 50 14 70 37 74 83 -18 197 -120 148z"/>
</g>
</svg>
